<svg width="68" height="68" viewBox="0 0 68 68" fill="none" xmlns="http://www.w3.org/2000/svg">
<g clip-path="url(#clip0_4_52)">
<path d="M67.6403 1.18542C67.5715 0.762176 67.2398 0.430431 66.8166 0.361771C63.15 -0.23306 59.4558 -0.0938813 55.8369 0.775722C54.5846 1.07652 55.0504 3.01321 56.3022 2.71254C59.4269 1.9618 62.6119 1.79712 65.78 2.22196C66.8601 10.3149 63.9467 18.5597 58.1259 24.2601C59.7323 15.8724 52.1315 8.26948 43.7419 9.87641C46.0157 7.60267 48.5999 5.71074 51.5287 4.36383C52.6987 3.82584 51.8664 2.01612 50.6963 2.55411C47.6871 3.93806 44.9739 5.82721 42.632 8.16881L31.1841 19.6167L20.3496 18.2394C16.2662 17.7208 12.0902 19.148 9.17924 22.059L6.98505 24.2532C6.59606 24.6421 6.5962 25.2727 6.98505 25.6617L8.55187 27.2285C6.97668 29.0234 7.04415 31.766 8.75653 33.4786C9.64725 34.3693 10.8174 34.8147 11.9874 34.8147C13.0655 34.8147 14.1431 34.4355 15.0027 33.6794L16.4298 35.1065L15.7455 41.5258C15.7136 41.8252 15.8188 42.1228 16.0317 42.3358L25.6665 51.9706C25.8794 52.1834 26.1772 52.2888 26.4764 52.2567L32.8956 51.5724L34.323 52.9997C33.5895 53.8343 33.1879 54.8933 33.1879 56.0147C33.1879 57.2369 33.6637 58.3858 34.5276 59.2497C35.3907 60.1129 36.5382 60.5883 37.7585 60.5883C38.88 60.5883 39.9394 60.1857 40.7738 59.4506L42.3403 61.017C42.8098 61.4059 43.2793 61.4059 43.7488 61.017L45.9431 58.8228C48.8538 55.912 50.2817 51.7362 49.7626 47.6528L48.3852 36.8179L59.8331 25.3702C66.1537 19.0496 69.0721 10.0087 67.6403 1.18542ZM10.1653 32.07C9.23024 31.1348 9.1649 29.6556 9.96624 28.6427L13.5887 32.2653C12.578 33.0686 11.0996 33.0043 10.1653 32.07ZM37.7586 58.5961C37.0703 58.5961 36.4233 58.3279 35.9364 57.8409C35.4486 57.3532 35.1801 56.7045 35.1801 56.0144C35.1801 55.4257 35.3772 54.868 35.7373 54.4138L39.3597 58.0362C38.9057 58.3984 38.3476 58.5961 37.7586 58.5961ZM39.9709 42.484C39.0604 43.3949 40.4686 44.8031 41.3795 43.8927L46.6115 38.6606L47.7866 47.9038C48.2285 51.3805 47.013 54.9358 44.5348 57.414L43.0448 58.904L33.9677 49.8268C33.7548 49.614 33.4575 49.509 33.1579 49.5407L26.7386 50.2251L26.1085 49.5949L30.7703 44.9331C31.681 44.0223 30.2724 42.6139 29.3618 43.5244L24.7 48.1862L19.8159 43.3022L40.5069 22.6113C41.8518 21.266 44.0404 21.2663 45.3856 22.6113C46.7067 23.9324 46.7098 26.1764 45.3855 27.5004L33.0544 39.8317C32.1438 40.7424 33.5522 42.1507 34.4631 41.2403L46.7941 28.909C48.8875 26.8156 48.8879 23.2964 46.7942 21.2025C44.6723 19.0807 41.2198 19.0808 39.0982 21.2025L18.407 41.8937L17.7769 41.2636L18.4612 34.8442C18.4932 34.5448 18.388 34.2472 18.1752 34.0342L9.0981 24.9572L10.5879 23.4672C13.0663 20.989 16.6213 19.7733 20.0984 20.2154L29.4026 21.3981L24.1439 26.6571C23.2333 27.5678 24.6417 28.9762 25.5524 28.0657L40.0021 13.6161C45.4797 9.62169 53.5205 12.1421 55.7696 18.5185C57.2069 22.5936 55.866 26.5128 52.9678 29.4248C48.6356 33.7779 44.3032 38.131 39.9709 42.484Z" fill="url(#paint0_linear_4_52)"/>
<path d="M1.00079 39.0832C1.25565 39.0832 1.51063 38.986 1.70506 38.7915L4.18226 36.3143C5.0929 35.4036 3.68437 33.9952 2.77373 34.9057L0.296532 37.3827C-0.294714 37.9741 0.164391 39.0832 1.00079 39.0832Z" fill="url(#paint1_linear_4_52)"/>
<path d="M7.14699 36.8183L1.12895 42.8364C0.218315 43.7471 1.62671 45.1555 2.53748 44.245L8.55551 38.227C9.46629 37.3162 8.05776 35.9078 7.14699 36.8183Z" fill="url(#paint2_linear_4_52)"/>
<path d="M31.5267 64.039L29.2197 66.288C28.296 67.1886 29.6907 68.6111 30.6103 67.7144L32.9173 65.4652C33.8394 64.5664 32.4487 63.1396 31.5267 64.039Z" fill="url(#paint3_linear_4_52)"/>
<path d="M31.1837 59.4464C30.7947 59.0575 30.164 59.0575 29.7752 59.4464L23.7571 65.4644C22.8465 66.3752 24.2549 67.7836 25.1657 66.8731L31.1837 60.855C31.5727 60.4659 31.5727 59.8353 31.1837 59.4464Z" fill="url(#paint4_linear_4_52)"/>
<path d="M15.5762 52.4867C15.188 52.0968 14.5573 52.0958 14.1677 52.4838L0.297987 66.2955C-0.614778 67.2045 0.791355 68.6153 1.70359 67.7071L15.5733 53.8954C15.9631 53.5072 15.9644 52.8765 15.5762 52.4867Z" fill="url(#paint5_linear_4_52)"/>
<path d="M2.98815 57.8425C3.45761 58.2313 3.92721 58.2313 4.39667 57.8425L15.1184 47.1209C16.029 46.2101 14.6205 44.8016 13.7099 45.7123L2.98815 56.4338C2.59917 56.8229 2.59917 57.4535 2.98815 57.8425Z" fill="url(#paint6_linear_4_52)"/>
<path d="M20.8813 52.8836L10.1596 63.6052C9.24895 64.516 10.6573 65.9244 11.5681 65.0139L22.2898 54.2923C23.2005 53.3815 21.7919 51.9731 20.8813 52.8836Z" fill="url(#paint7_linear_4_52)"/>
</g>
<defs>
<linearGradient id="paint0_linear_4_52" x1="37.3457" y1="0" x2="37.3457" y2="61.3087" gradientUnits="userSpaceOnUse">
<stop stop-color="#A06BFE"/>
<stop offset="0.911458" stop-color="#02D3FF"/>
</linearGradient>
<linearGradient id="paint1_linear_4_52" x1="2.25313" y1="34.6111" x2="2.25313" y2="39.0832" gradientUnits="userSpaceOnUse">
<stop stop-color="#A06BFE"/>
<stop offset="0.911458" stop-color="#02D3FF"/>
</linearGradient>
<linearGradient id="paint2_linear_4_52" x1="4.84226" y1="36.5238" x2="4.84226" y2="44.5396" gradientUnits="userSpaceOnUse">
<stop stop-color="#A06BFE"/>
<stop offset="0.911458" stop-color="#02D3FF"/>
</linearGradient>
<linearGradient id="paint3_linear_4_52" x1="31.0683" y1="63.7527" x2="31.0683" y2="67.9998" gradientUnits="userSpaceOnUse">
<stop stop-color="#A06BFE"/>
<stop offset="0.911458" stop-color="#02D3FF"/>
</linearGradient>
<linearGradient id="paint4_linear_4_52" x1="27.469" y1="59.1547" x2="27.469" y2="67.1676" gradientUnits="userSpaceOnUse">
<stop stop-color="#A06BFE"/>
<stop offset="0.911458" stop-color="#02D3FF"/>
</linearGradient>
<linearGradient id="paint5_linear_4_52" x1="7.93422" y1="52.1935" x2="7.93422" y2="68.0001" gradientUnits="userSpaceOnUse">
<stop stop-color="#A06BFE"/>
<stop offset="0.911458" stop-color="#02D3FF"/>
</linearGradient>
<linearGradient id="paint6_linear_4_52" x1="9.05469" y1="45.4177" x2="9.05469" y2="58.1341" gradientUnits="userSpaceOnUse">
<stop stop-color="#A06BFE"/>
<stop offset="0.911458" stop-color="#02D3FF"/>
</linearGradient>
<linearGradient id="paint7_linear_4_52" x1="16.2247" y1="52.5891" x2="16.2247" y2="65.3084" gradientUnits="userSpaceOnUse">
<stop stop-color="#A06BFE"/>
<stop offset="0.911458" stop-color="#02D3FF"/>
</linearGradient>
<clipPath id="clip0_4_52">
<rect width="68" height="68" fill="white"/>
</clipPath>
</defs>
</svg>
