<svg width="206" height="45" viewBox="0 0 206 45" fill="none" xmlns="http://www.w3.org/2000/svg">
<path d="M69.0512 31H65.2832L62.0192 25.528L58.7552 31H55.0112L60.1472 22.384L55.2752 14.2H59.0192L62.0192 19.24L65.0192 14.2H68.7632L63.8912 22.36L69.0512 31ZM80.9397 17.368H74.2197V21.352H80.7477V24.52H74.2197V31H70.9077V14.2H80.9397V17.368ZM89.617 31.336C87.745 31.336 86.209 30.808 85.009 29.752C83.809 28.696 83.209 27.28 83.209 25.504V14.2H86.497V25.24C86.497 26.12 86.745 26.816 87.241 27.328C87.753 27.84 88.545 28.096 89.617 28.096C90.689 28.096 91.473 27.84 91.969 27.328C92.481 26.816 92.737 26.12 92.737 25.24V14.2H96.049V25.504C96.049 27.28 95.449 28.696 94.249 29.752C93.049 30.808 91.505 31.336 89.617 31.336ZM108.753 14.2H112.065V31H109.545L102.345 20.728V31H99.0327V14.2H101.553L108.753 24.448V14.2ZM121.853 14.2C124.157 14.2 126.077 15.008 127.613 16.624C129.165 18.24 129.941 20.232 129.941 22.6C129.941 24.968 129.165 26.96 127.613 28.576C126.077 30.192 124.157 31 121.853 31H115.181V14.2H121.853ZM121.853 27.832C123.309 27.832 124.493 27.352 125.405 26.392C126.317 25.416 126.773 24.152 126.773 22.6C126.773 21.048 126.317 19.792 125.405 18.832C124.493 17.856 123.309 17.368 121.853 17.368H118.493V27.832H121.853ZM134.168 30.712C133.768 31.112 133.288 31.312 132.728 31.312C132.168 31.312 131.688 31.112 131.288 30.712C130.888 30.312 130.688 29.832 130.688 29.272C130.688 28.712 130.888 28.232 131.288 27.832C131.688 27.432 132.168 27.232 132.728 27.232C133.288 27.232 133.768 27.432 134.168 27.832C134.568 28.232 134.768 28.712 134.768 29.272C134.768 29.832 134.568 30.312 134.168 30.712ZM146.215 14.2V17.368H141.679V31H138.367V17.368H133.855V14.2H146.215ZM151.376 27.832H158.456V31H148.064V14.2H158.336V17.368H151.376V20.944H157.736V24.064H151.376V27.832ZM168.641 31.336C166.113 31.336 164.025 30.496 162.377 28.816C160.729 27.136 159.905 25.064 159.905 22.6C159.905 20.12 160.729 18.048 162.377 16.384C164.025 14.704 166.113 13.864 168.641 13.864C170.161 13.864 171.561 14.224 172.841 14.944C174.137 15.648 175.145 16.608 175.865 17.824L173.009 19.48C172.593 18.728 172.001 18.144 171.233 17.728C170.465 17.296 169.601 17.08 168.641 17.08C167.009 17.08 165.689 17.592 164.681 18.616C163.689 19.64 163.193 20.968 163.193 22.6C163.193 24.216 163.689 25.536 164.681 26.56C165.689 27.584 167.009 28.096 168.641 28.096C169.601 28.096 170.465 27.888 171.233 27.472C172.017 27.04 172.609 26.456 173.009 25.72L175.865 27.376C175.145 28.592 174.145 29.56 172.865 30.28C171.585 30.984 170.177 31.336 168.641 31.336ZM187.452 14.2H190.74V31H187.452V24.04H181.212V31H177.9V14.2H181.212V20.872H187.452V14.2Z" fill="white"/>
<path fill-rule="evenodd" clip-rule="evenodd" d="M38.7459 38.5124C41.7514 35.5069 41.7514 30.6339 38.7459 27.6283L33.3187 22.2012L38.7087 16.8113C41.7142 13.8057 41.7142 8.93269 38.7087 5.92711C35.7031 2.92154 30.8301 2.92153 27.8245 5.92711L22.4346 11.317L13.3717 2.25418C10.3662 -0.751393 5.49317 -0.751394 2.4876 2.25418C-0.517979 5.25976 -0.517983 10.1328 2.48759 13.1383L11.5504 22.2012L2.4504 31.3012C-0.555173 34.3068 -0.555174 39.1798 2.4504 42.1854C5.45598 45.191 10.329 45.191 13.3345 42.1854L22.4346 33.0853L27.8617 38.5124C30.8673 41.518 35.7403 41.518 38.7459 38.5124Z" fill="url(#paint0_linear_1_12)"/>
<path d="M22.5096 33.0431L27.7991 27.7537L33.787 33.7416C35.2477 35.2023 35.2477 37.5704 33.787 39.0311V39.0311C32.3264 40.4917 29.9582 40.4917 28.4976 39.0311L22.5096 33.0431Z" fill="#341694"/>
<path d="M27.799 16.8545L22.5096 11.5651L28.4975 5.57716C29.9582 4.11653 32.3263 4.11653 33.787 5.57716V5.57716C35.2476 7.0378 35.2476 9.40596 33.787 10.8666L27.799 16.8545Z" fill="#341694"/>
<path d="M16.8993 16.8731L11.5511 22.2214L2.6794 13.3349C1.20462 11.8577 1.20561 9.46492 2.68162 7.98891V7.98891C4.15936 6.51117 6.55556 6.51217 8.03208 7.99114L16.8993 16.8731Z" fill="#341694"/>
<path d="M11.5414 22.245L16.8992 27.6029L8.03681 36.4653C6.55727 37.9448 4.15847 37.9448 2.67894 36.4653V36.4653C1.1994 34.9857 1.1994 32.5869 2.67894 31.1074L11.5414 22.245Z" fill="#341694"/>
<path d="M16.9409 16.8374L20.1803 20.0768C21.3519 21.2483 21.3519 23.1478 20.1803 24.3194L15.9424 28.5573L10.5817 23.1966L16.9409 16.8374Z" fill="#341694"/>
<defs>
<linearGradient id="paint0_linear_1_12" x1="6.18878" y1="41.6944" x2="37.4704" y2="9.73275" gradientUnits="userSpaceOnUse">
<stop stop-color="#A06BFD"/>
<stop offset="1" stop-color="#02D3FF"/>
</linearGradient>
</defs>
</svg>
